<svg width="512" height="512" viewBox="0 0 512 512" fill="none" xmlns="http://www.w3.org/2000/svg">
<mask id="mask0_39_92" style="mask-type:alpha" maskUnits="userSpaceOnUse" x="0" y="0" width="512" height="512">
<circle cx="256" cy="256" r="256" fill="#D9D9D9"/>
</mask>
<g mask="url(#mask0_39_92)">
<rect x="-575.434" y="-417.982" width="2174.87" height="1062.51" fill="url(#paint0_linear_39_92)"/>
</g>
<path d="M84.8 313V219.08L91.84 226.12H50.4V201H150.24V226.12H108.96L116 219.08V313H84.8ZM193.164 244.36H245.164V268.04H193.164V244.36ZM195.404 288.52H253.964V313H164.044V201H251.884V225.48H195.404V288.52ZM310.904 315.24C301.73 315.24 292.877 314.12 284.344 311.88C275.917 309.533 269.037 306.547 263.704 302.92L274.104 279.56C279.117 282.76 284.877 285.427 291.384 287.56C297.997 289.587 304.557 290.6 311.064 290.6C315.437 290.6 318.957 290.227 321.624 289.48C324.29 288.627 326.21 287.56 327.384 286.28C328.664 284.893 329.304 283.293 329.304 281.48C329.304 278.92 328.13 276.893 325.784 275.4C323.437 273.907 320.397 272.68 316.664 271.72C312.93 270.76 308.77 269.8 304.184 268.84C299.704 267.88 295.17 266.653 290.584 265.16C286.104 263.667 281.997 261.747 278.264 259.4C274.53 256.947 271.49 253.8 269.144 249.96C266.797 246.013 265.624 241.053 265.624 235.08C265.624 228.36 267.437 222.28 271.064 216.84C274.797 211.4 280.344 207.027 287.704 203.72C295.064 200.413 304.237 198.76 315.224 198.76C322.584 198.76 329.784 199.613 336.824 201.32C343.97 202.92 350.317 205.32 355.864 208.52L346.104 232.04C340.77 229.16 335.49 227.027 330.264 225.64C325.037 224.147 319.97 223.4 315.064 223.4C310.69 223.4 307.17 223.88 304.504 224.84C301.837 225.693 299.917 226.867 298.744 228.36C297.57 229.853 296.984 231.56 296.984 233.48C296.984 235.933 298.104 237.907 300.344 239.4C302.69 240.787 305.73 241.96 309.464 242.92C313.304 243.773 317.464 244.68 321.944 245.64C326.53 246.6 331.064 247.827 335.544 249.32C340.13 250.707 344.29 252.627 348.024 255.08C351.757 257.427 354.744 260.573 356.984 264.52C359.33 268.36 360.504 273.213 360.504 279.08C360.504 285.587 358.637 291.613 354.904 297.16C351.277 302.6 345.784 306.973 338.424 310.28C331.17 313.587 321.997 315.24 310.904 315.24ZM397.415 313V226.12H363.015V201H463.335V226.12H429.095V313H397.415Z" fill="black"/>
<defs>
<linearGradient id="paint0_linear_39_92" x1="512" y1="-417.982" x2="512" y2="644.531" gradientUnits="userSpaceOnUse">
<stop stop-color="#DEEDFF" stop-opacity="0.6"/>
<stop offset="1" stop-color="#A6CCFA" stop-opacity="0.5"/>
</linearGradient>
</defs>
</svg>
